# xmcd
#
# Track frame offsets: 
#        150
#        14685
#        31449
#        47083
#        64615
#        81237
#        97691
#        113185
#        126723
#        142843
#        162142
#        179590
#        208691
#
# Disc length: 2918 seconds
#
# Revision: 0
# Processed by: cddbd v1.5.2PL0 Copyright (c) Steve Scherf et al.
# Submitted via: ExactAudioCopy v1.0b1
#
DISCID=b30b640d
DTITLE=Sugababes - Sweet7
DYEAR=2010
DGENRE=Teen Girl
TTITLE0=Get Sexy 
TTITLE1=Wear My Kiss 
TTITLE2=About A Girl 
TTITLE3=Wait For You 
TTITLE4=Thank You For The Heartbreak 
TTITLE5=Miss Everything 
TTITLE6=She's A Mess 
TTITLE7=It To Me Now 
TTITLE8=Crash and Burn 
TTITLE9=No More You 
TTITLE10=Sweet and Amazing (Make It The Best) 
TTITLE11=Little Miss Perfect 
TTITLE12=data track
EXTD=
EXTT0=
EXTT1=
EXTT2=
EXTT3=
EXTT4=
EXTT5=
EXTT6=
EXTT7=
EXTT8=
EXTT9=
EXTT10=
EXTT11=
EXTT12=
PLAYORDER=
